<?xml version="1.0" encoding="UTF-8"?>
<!DOCTYPE svg PUBLIC "-//W3C//DTD SVG 1.1//EN" "http://www.w3.org/Graphics/SVG/1.1/DTD/svg11.dtd">
<svg version="1.1" xmlns="http://www.w3.org/2000/svg" xmlns:xlink="http://www.w3.org/1999/xlink" width="50" height="50"  xml:space="preserve" id="_OLSKSharedFeatureZeroData">
    <!-- Generated by PaintCode (www.paintcodeapp.com) -->
    <g id="_OLSKSharedFeatureZeroData-group" transform="translate(-0.5, -0.5)" >
        <g id="_OLSKSharedFeatureZeroData-group2" transform="scale(1.02, 1.02)" >
            <g id="_OLSKSharedFeatureZeroData-group3">
                <path id="_OLSKSharedFeatureZeroData-bezier" stroke="rgb(0, 0, 0)" stroke-width="1.25" stroke-linecap="round" stroke-linejoin="round" stroke-miterlimit="10" fill="none" d="M 32.2,10.01 L 10,21.83 10,18.89 C 10,15.53 10,13.09 10,13.09 10,12.2 10,11.76 10.13,11.35 L 10.15,11.28 C 10.35,10.75 10.76,10.34 11.3,10.15 11.78,10 12.23,10 13.14,10 L 36.86,10 C 37.77,10 38.22,10 38.63,10.13 L 38.7,10.15 C 39.24,10.34 39.65,10.75 39.85,11.28 40,11.76 40,12.2 40,13.09 40,13.09 40,13.91 40,17.28 L 32.57,21.02" />
                <circle id="_OLSKSharedFeatureZeroData-oval" stroke="rgb(0, 0, 0)" stroke-width="1.25" fill="none" cx="25" cy="25" r="3" />
            </g>
        </g>
        <g id="_OLSKSharedFeatureZeroData-group4" transform="translate(25.5, 25.5) rotate(180) scale(1.02, 1.02)" >
            <g id="_OLSKSharedFeatureZeroData-group5">
                <path id="_OLSKSharedFeatureZeroData-bezier2" stroke="rgb(0, 0, 0)" stroke-width="1.25" stroke-linecap="round" stroke-linejoin="round" stroke-miterlimit="10" fill="none" d="M 7.2,-14.99 L -15,-3.17 -15,-6.11 C -15,-9.47 -15,-11.91 -15,-11.91 -15,-12.8 -15,-13.24 -14.87,-13.65 L -14.85,-13.72 C -14.65,-14.25 -14.24,-14.66 -13.7,-14.85 -13.22,-15 -12.77,-15 -11.86,-15 L 11.86,-15 C 12.77,-15 13.22,-15 13.63,-14.87 L 13.7,-14.85 C 14.24,-14.66 14.65,-14.25 14.85,-13.72 15,-13.24 15,-12.8 15,-11.91 15,-11.91 15,-11.09 15,-7.72 L 7.57,-3.98" />
                <circle id="_OLSKSharedFeatureZeroData-oval2" stroke="rgb(0, 0, 0)" stroke-width="1.25" fill="none" cx="0" cy="0" r="3" />
            </g>
        </g>
    </g>
</svg>
