<?xml version="1.0" encoding="UTF-8"?>
<!DOCTYPE svg PUBLIC "-//W3C//DTD SVG 1.1//EN" "http://www.w3.org/Graphics/SVG/1.1/DTD/svg11.dtd">
<svg version="1.1" xmlns="http://www.w3.org/2000/svg" xmlns:xlink="http://www.w3.org/1999/xlink" width="50" height="50"  xml:space="preserve" id="_OLSKSharedFeatureAccessible">
    <!-- Generated by PaintCode (www.paintcodeapp.com) -->
    <g id="_OLSKSharedFeatureAccessible-group">
        <circle id="_OLSKSharedFeatureAccessible-oval2" stroke="rgb(0, 0, 0)" stroke-width="1.25" fill="none" cx="25" cy="25" r="18.5" />
        <g id="_OLSKSharedFeatureAccessible-group2">
            <circle id="_OLSKSharedFeatureAccessible-oval" stroke="rgb(0, 0, 0)" stroke-width="1.25" fill="none" cx="25" cy="16" r="3" />
            <path id="_OLSKSharedFeatureAccessible-bezier2" stroke="rgb(0, 0, 0)" stroke-width="1.25" stroke-linejoin="round" stroke-miterlimit="10" fill="none" d="M 25,21.27 C 28.87,21.35 31.67,21.19 33.51,21.27 35.34,21.34 35.28,23.73 33.51,23.76 31.73,23.78 27.73,23.76 27.73,23.76 L 27.73,29.67 31.68,34.96 C 32.37,36.39 30.7,37.79 29.25,36.51 L 25,31.22 20.74,36.51 C 19.22,37.45 18.08,36.44 18.31,34.96 L 22.26,29.67 22.26,23.76 C 22.26,23.76 18.36,23.82 16.49,23.76 14.62,23.7 14.62,21.29 16.49,21.27 18.35,21.25 21.12,21.19 25,21.27 Z M 25,21.27" />
        </g>
    </g>
</svg>
