<?xml version="1.0" encoding="UTF-8"?>
<!DOCTYPE svg PUBLIC "-//W3C//DTD SVG 1.1//EN" "http://www.w3.org/Graphics/SVG/1.1/DTD/svg11.dtd">
<svg version="1.1" xmlns="http://www.w3.org/2000/svg" xmlns:xlink="http://www.w3.org/1999/xlink" width="50" height="50"  xml:space="preserve" id="_OLSKSharedFeatureBrackets">
    <!-- Generated by PaintCode (www.paintcodeapp.com) -->
    <path id="_OLSKSharedFeatureBrackets-text2" stroke="rgb(0, 0, 0)" stroke-width="0.5" stroke-linecap="round" stroke-linejoin="round" stroke-miterlimit="10" fill="rgb(0, 0, 0)" d="M 14.15,11.8 L 10.88,11.8 10.88,38.1 14.15,38.1 14.15,37.52 11.46,37.52 11.46,12.38 14.15,12.38 14.15,11.8 Z M 20.59,11.8 L 17.31,11.8 17.31,38.1 20.59,38.1 20.59,37.52 17.89,37.52 17.89,12.38 20.59,12.38 20.59,11.8 Z M 29.41,38.1 L 32.69,38.1 32.69,11.8 29.41,11.8 29.41,12.38 32.1,12.38 32.1,37.52 29.41,37.52 29.41,38.1 Z M 35.85,38.1 L 39.12,38.1 39.12,11.8 35.85,11.8 35.85,12.38 38.54,12.38 38.54,37.52 35.85,37.52 35.85,38.1 Z M 35.85,38.1" />
</svg>
