<?xml version="1.0" encoding="UTF-8"?>
<!DOCTYPE svg PUBLIC "-//W3C//DTD SVG 1.1//EN" "http://www.w3.org/Graphics/SVG/1.1/DTD/svg11.dtd">
<svg version="1.1" xmlns="http://www.w3.org/2000/svg" xmlns:xlink="http://www.w3.org/1999/xlink" width="50" height="50"  xml:space="preserve" id="_OLSKSharedFeatureOffline">
    <!-- Generated by PaintCode (www.paintcodeapp.com) -->
    <path id="_OLSKSharedFeatureOffline-bezier" stroke="rgb(0, 0, 0)" stroke-width="1.25" stroke-linecap="round" stroke-miterlimit="10" fill="none" d="M 33.55,31.61 L 35.03,31.61 C 38.06,31.61 40.5,29.16 40.5,26.12 40.5,23.44 38.6,21.21 36.09,20.71 L 36.08,20.71 C 35.68,20.64 35.41,20.27 35.45,19.86 35.85,15.98 32.79,12 28.38,12 25.34,12 23.09,13.77 22.04,15.87 L 22.04,15.87 C 21.85,16.26 21.38,16.42 20.99,16.23 19.67,15.57 18.09,15.64 16.86,16.39 15.62,17.13 14.69,18.51 14.69,20.63 L 14.69,20.63 C 14.69,21.01 14.42,21.33 14.05,21.4 11.7,21.8 10,24.15 10,26.51 10,29.35 12.23,31.61 15.87,31.61 L 18.4,31.61 M 29.56,35.5 L 22.26,28.2 M 29.56,28.2 L 22.26,35.5" />
</svg>
