<?xml version="1.0" encoding="UTF-8"?>
<!DOCTYPE svg PUBLIC "-//W3C//DTD SVG 1.1//EN" "http://www.w3.org/Graphics/SVG/1.1/DTD/svg11.dtd">
<svg version="1.1" xmlns="http://www.w3.org/2000/svg" xmlns:xlink="http://www.w3.org/1999/xlink" width="50" height="50"  xml:space="preserve" id="_OLSKSharedFeatureOpenSource">
    <!-- Generated by PaintCode (www.paintcodeapp.com) -->
    <path id="_OLSKSharedFeatureOpenSource-bezier" stroke="rgb(0, 0, 0)" stroke-width="1.25" stroke-linejoin="round" stroke-miterlimit="4" fill="none" d="M 27.11,30.6 L 27.11,30.6 C 30.16,29.43 31.68,26 30.51,22.95 29.34,19.89 25.93,18.36 22.89,19.54 19.84,20.71 18.32,24.14 19.49,27.19 20.09,28.76 21.32,30 22.89,30.6 L 18.91,41 18.91,41 C 10.15,37.62 5.77,27.75 9.13,18.95 12.5,10.16 22.33,5.76 31.09,9.14 39.85,12.52 44.23,22.39 40.87,31.18 39.14,35.7 35.59,39.27 31.09,41 L 27.11,30.6 Z M 27.11,30.6" />
</svg>
