<?xml version="1.0" encoding="UTF-8"?>
<!DOCTYPE svg PUBLIC "-//W3C//DTD SVG 1.1//EN" "http://www.w3.org/Graphics/SVG/1.1/DTD/svg11.dtd">
<svg version="1.1" xmlns="http://www.w3.org/2000/svg" xmlns:xlink="http://www.w3.org/1999/xlink" width="50" height="50"  xml:space="preserve" id="_OLSKSharedFeatureTransport">
    <!-- Generated by PaintCode (www.paintcodeapp.com) -->
    <path id="_OLSKSharedFeatureTransport-rectangle2" stroke="rgb(0, 0, 0)" stroke-width="1.25" stroke-linecap="round" stroke-miterlimit="10" fill="none" d="M 38,23.7 L 38,36.25 C 38,37.04 38,37.44 37.88,37.79 L 37.87,37.86 C 37.7,38.33 37.33,38.7 36.86,38.87 36.44,39 36.04,39 35.25,39 L 13.75,39 C 12.96,39 12.56,39 12.21,38.88 L 12.14,38.87 C 11.67,38.7 11.3,38.33 11.13,37.86 11,37.44 11,37.04 11,36.25 L 11,14.75 C 11,13.96 11,13.56 11.12,13.21 L 11.13,13.14 C 11.3,12.67 11.67,12.3 12.14,12.13 12.56,12 12.96,12 13.75,12 L 26.3,12" />
    <g id="_OLSKSharedFeatureTransport-group">
        <path id="_OLSKSharedFeatureTransport-bezier" stroke="rgb(0, 0, 0)" stroke-width="1.25" stroke-linecap="round" stroke-miterlimit="10" fill="none" d="M 40,10 L 20,30" />
        <path id="_OLSKSharedFeatureTransport-bezier2" stroke="rgb(0, 0, 0)" stroke-width="1.25" stroke-linecap="round" stroke-linejoin="round" stroke-miterlimit="10" fill="none" d="M 35,10 L 40,10 40,15" />
        <path id="_OLSKSharedFeatureTransport-bezier3" stroke="rgb(0, 0, 0)" stroke-width="1.25" stroke-linecap="round" stroke-linejoin="round" stroke-miterlimit="10" fill="none" d="M 25,30 L 20,30 20,25" />
    </g>
</svg>
